<?xml version="1.0" standalone="no"?>
<!DOCTYPE svg PUBLIC "-//W3C//DTD SVG 20010904//EN"
 "http://www.w3.org/TR/2001/REC-SVG-20010904/DTD/svg10.dtd">
<svg version="1.0" xmlns="http://www.w3.org/2000/svg"
 width="960.000000pt" height="400.000000pt" viewBox="0 0 960.000000 400.000000"
 preserveAspectRatio="xMidYMid meet">

<g transform="translate(0.000000,400.000000) scale(0.100000,-0.100000)"
fill="#CFC6B6" stroke="none">
<path d="M2317 2803 c-4 -3 -7 -321 -7 -705 l0 -698 2500 0 2500 0 -2 703 -3
702 -2491 3 c-1370 1 -2494 -1 -2497 -5z m4981 -700 l2 -693 -2490 0 -2490 0
0 688 c0 379 3 692 7 695 3 4 1123 6 2487 5 l2481 -3 3 -692z"/>
<path d="M2823 2386 l-28 -24 -3 -275 -3 -276 30 -33 29 -33 146 0 146 0 27
28 28 27 3 262 c4 360 11 348 -205 348 -136 0 -143 -1 -170 -24z m235 -48 c17
-17 17 -499 0 -516 -7 -7 -35 -12 -63 -12 -28 0 -56 5 -63 12 -17 17 -17 499
0 516 7 7 35 12 63 12 28 0 56 -5 63 -12z"/>
<path d="M3250 2380 l0 -30 80 0 80 0 0 -305 0 -305 60 0 60 0 0 305 0 304 83
3 c81 3 82 3 85 31 l3 27 -225 0 -226 0 0 -30z"/>
<path d="M3890 2407 c0 -2 -31 -144 -70 -317 -38 -173 -70 -322 -70 -332 0
-14 8 -18 34 -18 40 0 36 -12 72 173 l27 137 58 0 58 0 25 -82 c13 -46 34
-116 46 -155 l21 -73 69 0 c39 0 70 1 70 3 0 1 -44 151 -98 332 l-98 330 -72
3 c-40 2 -72 1 -72 -1z m52 -285 c-19 -2 -36 -1 -39 2 -5 4 13 107 24 136 3 8
15 -19 27 -60 l22 -75 -34 -3z"/>
<path d="M4280 2075 l0 -335 60 0 60 0 0 144 0 145 28 31 28 31 31 -103 c18
-57 41 -136 53 -175 l22 -73 59 0 c46 0 59 3 59 15 0 8 -29 113 -65 233 -36
121 -65 225 -65 232 0 7 24 47 53 89 29 42 57 82 61 89 5 9 -8 12 -56 12 l-63
0 -70 -101 -70 -101 -3 101 -3 101 -59 0 -60 0 0 -335z"/>
<path d="M4880 2407 c0 -2 -31 -144 -70 -317 -38 -173 -70 -322 -70 -332 0
-14 8 -18 34 -18 40 0 36 -12 72 173 l27 137 58 0 58 0 25 -82 c13 -46 34
-116 46 -155 l21 -73 69 0 c39 0 70 1 70 3 0 1 -44 151 -98 332 l-98 330 -72
3 c-40 2 -72 1 -72 -1z m52 -285 c-19 -2 -36 -1 -39 2 -5 4 13 107 24 136 3 8
15 -19 27 -60 l22 -75 -34 -3z"/>
<path d="M5482 2078 l3 -333 188 -3 187 -2 0 35 0 35 -125 0 -125 0 0 300 0
300 -65 0 -65 0 2 -332z"/>
<path d="M6050 2407 c0 -2 -31 -144 -70 -317 -38 -173 -70 -322 -70 -332 0
-14 8 -18 34 -18 40 0 36 -12 72 173 l27 137 58 0 58 0 25 -82 c13 -46 34
-116 46 -155 l21 -73 69 0 c39 0 70 1 70 3 0 1 -44 151 -98 332 l-98 330 -72
3 c-40 2 -72 1 -72 -1z m52 -285 c-19 -2 -36 -1 -39 2 -5 4 13 107 24 136 3 8
15 -19 27 -60 l22 -75 -34 -3z"/>
<path d="M6440 2074 l0 -335 155 3 c154 3 155 3 182 31 27 26 28 32 31 142 3
83 0 122 -10 142 -11 23 -11 33 -1 53 8 15 13 64 13 123 0 104 -13 147 -49
167 -11 5 -86 10 -170 10 l-151 0 0 -336z m228 264 c8 -8 12 -46 12 -103 0
-57 -4 -95 -12 -103 -7 -7 -34 -12 -60 -12 l-48 0 0 115 0 115 48 0 c26 0 53
-5 60 -12z m-7 -298 c17 -10 19 -22 19 -108 0 -63 -4 -102 -12 -110 -7 -7 -34
-12 -60 -12 l-48 0 0 120 0 120 41 0 c22 0 49 -5 60 -10z"/>
</g>
</svg>
