<?xml version="1.0" standalone="no"?>
<!DOCTYPE svg PUBLIC "-//W3C//DTD SVG 20010904//EN"
 "http://www.w3.org/TR/2001/REC-SVG-20010904/DTD/svg10.dtd">
<svg version="1.0" xmlns="http://www.w3.org/2000/svg"
 width="1080.000000pt" height="1080.000000pt" viewBox="0 0 1080.000000 1080.000000"
 preserveAspectRatio="xMidYMid meet">

<g transform="translate(0.000000,1080.000000) scale(0.100000,-0.100000)"
fill="#000000" stroke="none">
<path d="M5318 9591 c-7 -10 -78 -161 -158 -335 l-145 -316 -567 0 -568 0 0
-150 0 -150 496 0 c393 0 495 -3 491 -12 -3 -7 -239 -520 -526 -1139 -286
-620 -521 -1129 -521 -1133 0 -3 146 -6 324 -6 247 0 326 3 334 13 7 9 597
1274 811 1740 l27 57 484 -876 c267 -482 493 -890 502 -905 l18 -29 340 0
c187 0 340 4 340 8 0 5 -280 514 -621 1132 -342 619 -624 1130 -626 1137 -4
10 118 13 593 15 l599 3 3 148 3 147 -637 0 c-505 0 -635 3 -631 13 2 6 70
155 151 329 80 174 146 319 146 322 0 3 -146 6 -324 6 -307 0 -326 -1 -338
-19z"/>
<path d="M5110 5150 l0 -90 -615 0 -615 0 0 -150 0 -150 180 0 180 0 0 -540 0
-540 -150 0 -150 0 0 -845 0 -845 300 0 300 0 0 695 0 695 870 0 870 0 2 -692
3 -693 300 0 300 0 0 840 0 840 -152 3 -153 3 0 539 0 540 185 0 185 0 0 150
0 150 -620 0 -620 0 0 90 0 90 -300 0 -300 0 0 -90z m870 -470 l0 -80 -570 0
-570 0 0 80 0 80 570 0 570 0 0 -80z m0 -460 l0 -80 -570 0 -570 0 0 80 0 80
570 0 570 0 0 -80z m0 -460 l0 -80 -570 0 -570 0 0 80 0 80 570 0 570 0 0 -80z"/>
<path d="M4660 2775 l0 -485 750 0 750 0 0 485 0 485 -750 0 -750 0 0 -485z
m960 0 l0 -175 -210 0 -210 0 0 175 0 175 210 0 210 0 0 -175z"/>
<path d="M3934 1386 c-17 -7 -34 -21 -38 -31 -3 -9 -6 -106 -6 -215 0 -255 -6
-245 149 -245 162 0 156 -10 156 250 0 199 -1 205 -23 227 -20 20 -34 23 -115
26 -62 1 -102 -2 -123 -12z m154 -44 c9 -7 12 -54 10 -203 l-3 -194 -43 -3
c-71 -5 -72 -3 -72 202 0 128 4 186 12 194 14 14 76 16 96 4z"/>
<path d="M4237 1393 c-4 -3 -7 -15 -7 -25 0 -15 8 -18 60 -18 l60 0 2 -227 3
-228 48 -3 47 -3 0 230 0 231 60 0 c57 0 60 1 60 25 l0 25 -163 0 c-90 0 -167
-3 -170 -7z"/>
<path d="M4716 1383 c-9 -29 -106 -472 -106 -483 0 -5 11 -10 25 -10 17 0 26
7 30 23 9 41 45 211 45 214 0 2 20 3 43 3 l44 0 34 -117 35 -118 53 -3 c48 -3
52 -1 47 16 -4 11 -29 96 -57 188 -27 93 -59 199 -70 237 l-20 67 -49 0 c-38
0 -50 -4 -54 -17z m59 -180 c6 -32 5 -33 -25 -33 -28 0 -32 3 -27 23 3 12 9
40 13 62 l7 40 12 -30 c7 -16 16 -45 20 -62z"/>
<path d="M5010 1145 l0 -255 45 0 45 0 0 113 c0 101 2 116 20 132 11 10 21 16
23 14 3 -4 15 -43 57 -186 l21 -73 44 0 c25 0 45 3 45 7 0 4 -22 82 -50 175
-27 92 -50 173 -50 179 0 6 20 40 45 75 25 34 45 65 45 68 0 3 -20 6 -43 6
-43 0 -44 -1 -100 -82 l-57 -82 0 82 0 82 -45 0 -45 0 0 -255z"/>
<path d="M5466 1391 c-4 -5 -29 -110 -56 -233 -27 -123 -52 -233 -55 -245 -5
-20 -1 -23 23 -23 29 0 29 0 53 118 l24 117 44 0 44 0 35 -117 35 -118 49 0
c60 0 63 -30 -30 280 l-67 225 -47 3 c-25 2 -49 -1 -52 -7z m64 -218 c0 -2
-14 -3 -31 -3 l-32 0 7 52 c10 76 17 78 37 12 10 -32 19 -60 19 -61z"/>
<path d="M5915 1388 c-3 -7 -4 -121 -3 -253 l3 -240 138 -3 137 -3 0 26 c0 25
0 25 -90 25 l-90 0 -2 228 -3 227 -43 3 c-28 2 -44 -1 -47 -10z"/>
<path d="M6346 1391 c-4 -5 -29 -110 -56 -233 -27 -123 -52 -233 -55 -245 -5
-20 -1 -23 23 -23 29 0 29 0 53 118 l24 117 44 0 44 0 35 -117 35 -118 49 0
c60 0 63 -30 -30 280 l-67 225 -47 3 c-25 2 -49 -1 -52 -7z m64 -218 c0 -2
-14 -3 -31 -3 l-32 0 7 52 c10 76 17 78 37 12 10 -32 19 -60 19 -61z"/>
<path d="M6630 1144 l0 -256 120 4 c155 4 155 4 154 136 -1 53 -2 106 -3 117
0 11 2 51 5 89 3 37 3 84 -1 103 -9 49 -48 63 -175 63 l-100 0 0 -256z m180
187 c5 -11 10 -44 10 -75 0 -65 -18 -89 -64 -84 l-31 3 -3 88 -3 87 40 0 c30
0 43 -5 51 -19z m-10 -221 c15 -15 20 -33 20 -76 0 -76 -11 -94 -60 -94 l-40
0 0 88 c0 49 3 92 7 95 13 14 54 6 73 -13z"/>
</g>
</svg>
